# xmcd
#
# Track frame offsets:
#	150
#	17567
#	32751
#	50218
#	65035
#	82242
#	100311
#	122211
#	139314
#	156731
#	171915
#	189382
#	204199
#	221406
#	239475
#	261375
#
# Disc length: 3713 seconds
#
# Revision: 1
# Processed by: cddbd v1.5.2PL0 Copyright (c) Steve Scherf et al.
# Submitted via: audiograbber 1.83.01
#
DISCID=fa0e7f10
DTITLE=SuperHits 82 - CDGSH-082
DYEAR=1900
DGENRE=Karaoke
TTITLE0=Kenny Chesney - No Shoes, No Shirt, No Problem
TTITLE1=George Strait - Tell Me Something Bad About Tulsa
TTITLE2=Diamond Rio - I Believe
TTITLE3=Faith Hill - This Kiss
TTITLE4=Alan Jackson and Jimmy Buffet - Its Five Oclock Somewhere
TTITLE5=Brooks and Dunn - Red Dirt Road
TTITLE6=Shania Twain - Forever And For Always
TTITLE7=Dierks Bentley - What Was I Thinkin
TTITLE8=Kenny Chesney - No Shoes, No Shirt, No Problem - Vocals
TTITLE9=George Strait - Tell Me Something Bad About Tulsa - Vocals
TTITLE10=Diamond Rio - I Believe - Vocals
TTITLE11=Faith Hill - This Kiss - Vocals
TTITLE12=Alan Jackson and Jimmy Buffet - Its Five Oclock Somewhere - Vocals
TTITLE13=Brooks and Dunn - Red Dirt Road - Vocals
TTITLE14=Shania Twain - Forever And For Always - Vocals
TTITLE15=Dierks Bentley - What Was I Thinkin - Vocals
EXTD=
EXTT0=
EXTT1=
EXTT2=
EXTT3=
EXTT4=
EXTT5=
EXTT6=
EXTT7=
EXTT8=
EXTT9=
EXTT10=
EXTT11=
EXTT12=
EXTT13=
EXTT14=
EXTT15=
PLAYORDER=
